# xmcd
#
# Track frame offsets:
# 150
# 13800
# 28944
# 42105
# 57287
# 67505
# 80272
# 96550
# 110622
# 123107
# 136570
# 146090
#
# Disc length: 2123 seconds
#
#
# Revision: 1
# Processed by: cddbd v1.5.1PL2 Copyright (c) Steve Scherf et al.
# Submitted via: FreeRIP 2.945 
#
DISCID=9a08490c
DTITLE=Beth Carvalho - Pandeiro E Viola
DYEAR=1975
DGENRE=
TTITLE0=Só Queria Ser Feliz
TTITLE1=O Pior É Saber
TTITLE2=Pandeiro E Viola
TTITLE3=Amor Sem Esperança
TTITLE4=Onde Está A Honestidade
TTITLE5=Gota D'Água
TTITLE6=Enamorada Do Sambão
TTITLE7=O Dia De Amanhã
TTITLE8=Amor Fiel
TTITLE9=De Novo Desamor
TTITLE10=Sente O Pesado Do Couro
TTITLE11=Cansaço
EXTD=
EXTT0=
EXTT1=
EXTT2=
EXTT3=
EXTT4=
EXTT5=
EXTT6=
EXTT7=
EXTT8=
EXTT9=
EXTT10=
EXTT11=
PLAYORDER=
